REM DIRINDEX 1\2\5,1\2\6,1\2\7,1\2\8,1\3\9,1\3\10,1\3\11,1\4\12,1\4\13,1\4\14,1\4\15,1\4\16
REM DIRNAME cjc034,folder01,folder02,folder03,folder04,folder05,folder06,folder07,folder08,folder09,folder10,folder11,folder12,folder13,folder14,folder15
TITLE ""
FILE "1200_sec03_0881_0888.mp3" MP3
  TRACK 01 AUDIO
    TITLE "0:"
    INDEX 01 00:00:00
  TRACK 02 AUDIO
    TITLE "12:cjc034_07197"
    INDEX 01 00:00:19
  TRACK 03 AUDIO
    TITLE "0:"
    INDEX 01 00:01:17
  TRACK 04 AUDIO
    TITLE "13:cjc034_07198"
    INDEX 01 00:01:52
  TRACK 05 AUDIO
    TITLE "0:"
    INDEX 01 00:05:32
  TRACK 06 AUDIO
    TITLE "14:cjc034_07199"
    INDEX 01 00:05:65
  TRACK 07 AUDIO
    TITLE "0:"
    INDEX 01 00:06:63
  TRACK 08 AUDIO
    TITLE "15:cjc034_07200"
    INDEX 01 00:07:25
  TRACK 09 AUDIO
    TITLE "0:"
    INDEX 01 00:10:66
  TRACK 10 AUDIO
    TITLE "12:cjc034_07201"
    INDEX 01 00:12:26
  TRACK 11 AUDIO
    TITLE "0:"
    INDEX 01 00:13:55
  TRACK 12 AUDIO
    TITLE "13:cjc034_07202"
    INDEX 01 00:14:09
  TRACK 13 AUDIO
    TITLE "0:"
    INDEX 01 00:15:58
  TRACK 14 AUDIO
    TITLE "14:cjc034_07203"
    INDEX 01 00:16:14
  TRACK 15 AUDIO
    TITLE "0:"
    INDEX 01 00:17:43
  TRACK 16 AUDIO
    TITLE "15:cjc034_07204"
    INDEX 01 00:17:72
  TRACK 17 AUDIO
    TITLE "0:"
    INDEX 01 00:23:22
  TRACK 18 AUDIO
    TITLE "12:cjc034_07205"
    INDEX 01 00:24:55
  TRACK 19 AUDIO
    TITLE "0:"
    INDEX 01 00:25:64
  TRACK 20 AUDIO
    TITLE "13:cjc034_07206"
    INDEX 01 00:26:20
  TRACK 21 AUDIO
    TITLE "0:"
    INDEX 01 00:28:41
  TRACK 22 AUDIO
    TITLE "14:cjc034_07207"
    INDEX 01 00:28:72
  TRACK 23 AUDIO
    TITLE "0:"
    INDEX 01 00:30:06
  TRACK 24 AUDIO
    TITLE "15:cjc034_07208"
    INDEX 01 00:30:40
  TRACK 25 AUDIO
    TITLE "0:"
    INDEX 01 00:34:49
  TRACK 26 AUDIO
    TITLE "12:cjc034_07209"
    INDEX 01 00:36:07
  TRACK 27 AUDIO
    TITLE "0:"
    INDEX 01 00:37:30
  TRACK 28 AUDIO
    TITLE "13:cjc034_07210"
    INDEX 01 00:37:65
  TRACK 29 AUDIO
    TITLE "0:"
    INDEX 01 00:39:17
  TRACK 30 AUDIO
    TITLE "14:cjc034_07211"
    INDEX 01 00:39:49
  TRACK 31 AUDIO
    TITLE "0:"
    INDEX 01 00:40:72
  TRACK 32 AUDIO
    TITLE "15:cjc034_07212"
    INDEX 01 00:41:30
  TRACK 33 AUDIO
    TITLE "0:"
    INDEX 01 00:44:65
  TRACK 34 AUDIO
    TITLE "12:cjc034_07213"
    INDEX 01 00:46:23
  TRACK 35 AUDIO
    TITLE "0:"
    INDEX 01 00:47:23
  TRACK 36 AUDIO
    TITLE "13:cjc034_07214"
    INDEX 01 00:47:58
  TRACK 37 AUDIO
    TITLE "0:"
    INDEX 01 00:50:42
  TRACK 38 AUDIO
    TITLE "14:cjc034_07215"
    INDEX 01 00:50:74
  TRACK 39 AUDIO
    TITLE "0:"
    INDEX 01 00:52:02
  TRACK 40 AUDIO
    TITLE "15:cjc034_07216"
    INDEX 01 00:52:36
  TRACK 41 AUDIO
    TITLE "0:"
    INDEX 01 00:55:63
  TRACK 42 AUDIO
    TITLE "16:cjc034_07217"
    INDEX 01 00:57:21
  TRACK 43 AUDIO
    TITLE "0:"
    INDEX 01 01:02:08
  TRACK 44 AUDIO
    TITLE "12:cjc034_07218"
    INDEX 01 01:03:20
  TRACK 45 AUDIO
    TITLE "0:"
    INDEX 01 01:04:35
  TRACK 46 AUDIO
    TITLE "13:cjc034_07219"
    INDEX 01 01:04:68
  TRACK 47 AUDIO
    TITLE "0:"
    INDEX 01 01:10:10
  TRACK 48 AUDIO
    TITLE "14:cjc034_07220"
    INDEX 01 01:10:51
  TRACK 49 AUDIO
    TITLE "0:"
    INDEX 01 01:11:72
  TRACK 50 AUDIO
    TITLE "15:cjc034_07221"
    INDEX 01 01:12:30
  TRACK 51 AUDIO
    TITLE "0:"
    INDEX 01 01:16:11
  TRACK 52 AUDIO
    TITLE "12:cjc034_07222"
    INDEX 01 01:17:53
  TRACK 53 AUDIO
    TITLE "0:"
    INDEX 01 01:18:54
  TRACK 54 AUDIO
    TITLE "13:cjc034_07223"
    INDEX 01 01:19:13
  TRACK 55 AUDIO
    TITLE "0:"
    INDEX 01 01:22:01
  TRACK 56 AUDIO
    TITLE "14:cjc034_07224"
    INDEX 01 01:22:39
  TRACK 57 AUDIO
    TITLE "0:"
    INDEX 01 01:23:40
  TRACK 58 AUDIO
    TITLE "15:cjc034_07225"
    INDEX 01 01:23:73
  TRACK 59 AUDIO
    TITLE "0:"
    INDEX 01 01:27:06
  TRACK 60 AUDIO
    TITLE "12:cjc034_07226"
    INDEX 01 01:28:41
  TRACK 61 AUDIO
    TITLE "0:"
    INDEX 01 01:29:70
  TRACK 62 AUDIO
    TITLE "13:cjc034_07227"
    INDEX 01 01:30:28
  TRACK 63 AUDIO
    TITLE "0:"
    INDEX 01 01:32:49
  TRACK 64 AUDIO
    TITLE "14:cjc034_07228"
    INDEX 01 01:33:07
  TRACK 65 AUDIO
    TITLE "0:"
    INDEX 01 01:34:38
  TRACK 66 AUDIO
    TITLE "15:cjc034_07229"
    INDEX 01 01:35:00
  TRACK 67 AUDIO
    TITLE "0:"
    INDEX 01 01:37:54
